<svg width="24" height="16" viewBox="0 0 24 16" fill="none" xmlns="http://www.w3.org/2000/svg">
<path d="M7.38069 12.6293L7.33715 12.6711C6.6535 13.3605 5.86237 13.7248 5.04743 13.7248C3.34545 13.7248 2.1108 12.461 2.1108 10.7178C2.1108 8.97732 3.34545 7.71151 5.04743 7.71151C5.86237 7.71151 6.6535 8.07779 7.33715 8.76994L7.38069 8.81101L8.47521 7.50077L8.44596 7.46575C7.53578 6.40126 6.4433 5.88349 5.10049 5.88349C3.75428 5.88349 2.52167 6.33259 1.63462 7.14122C0.668669 8.01786 0.160522 9.25405 0.160522 10.7178C0.160522 12.1816 0.668669 13.4204 1.63462 14.2971C2.52167 15.1104 3.75428 15.5562 5.10049 15.5562C6.4433 15.5562 7.53578 15.0377 8.44596 13.9725L8.47521 13.9402L7.38069 12.6293" fill="#004685"/>
<path d="M9.5802 15.3774H11.5135V6.0347H9.5802V15.3774Z" fill="#004685"/>
<path d="M19.0876 13.3466C18.5713 13.6577 18.0918 13.8146 17.6605 13.8146C17.0353 13.8146 16.7523 13.4873 16.7523 12.7602V7.80264H18.723V6.04397H16.7523V3.13666L14.8579 4.14122V6.04397H13.2225V7.80264H14.8579V13.0759C14.8579 14.5121 15.7177 15.4951 17.002 15.5207C17.8734 15.5375 18.3985 15.2803 18.7169 15.0918L18.7373 15.079L19.2019 13.2773L19.0876 13.3466" fill="#004685"/>
<path d="M20.688 15.3774H22.624V6.0347H20.688V15.3774Z" fill="#004685"/>
<path d="M23.7516 4.39716C21.985 1.92075 19.0518 0.44353 16.0675 0.44353C13.0839 0.44353 10.15 1.92075 8.38681 4.39716L8.29565 4.52441H10.5201L10.5446 4.49816C12.0581 2.95091 14.0349 2.13352 16.0675 2.13352C18.1001 2.13352 20.0755 2.95091 21.5925 4.49816L21.617 4.52441H23.84L23.7516 4.39716" fill="#EE1C25"/>
</svg>
